<?xml version="1.0" encoding="utf-8"?>
<!-- Generator: Adobe Illustrator 19.1.0, SVG Export Plug-In . SVG Version: 6.00 Build 0)  -->
<!DOCTYPE svg PUBLIC "-//W3C//DTD SVG 1.1//EN" "http://www.w3.org/Graphics/SVG/1.1/DTD/svg11.dtd">
<svg version="1.1" id="Layer_1" xmlns="http://www.w3.org/2000/svg" xmlns:xlink="http://www.w3.org/1999/xlink" x="0px" y="0px"
	 width="20px" height="20px" viewBox="0 0 20 20" enable-background="new 0 0 20 20" xml:space="preserve">
<g>
	<path fill="#FFFFFF" d="M17.5,0.1h-15c-1.3,0-2.3,1-2.3,2.3v15.1c0,1.3,1.1,2.3,2.3,2.3h15c1.3,0,2.3-1,2.3-2.3V2.4
		C19.9,1.1,18.8,0.1,17.5,0.1z M13.8,2.9c0-0.3,0.2-0.6,0.6-0.6h2.7c0.3,0,0.6,0.2,0.6,0.6v2.7c0,0.3-0.2,0.6-0.6,0.6h-2.7
		c-0.3,0-0.6-0.2-0.6-0.6V2.9z M10,6.2c2.1,0,3.8,1.7,3.8,3.8c0,2.1-1.7,3.8-3.8,3.8c-2.1,0-3.8-1.7-3.8-3.8C6.2,7.9,7.9,6.2,10,6.2
		z M17.7,17c0,0.3-0.2,0.6-0.6,0.6H2.9c-0.3,0-0.6-0.2-0.6-0.6V8.4h1.8C4.1,8.9,4,9.4,4,10c0,3.3,2.7,6,6,6c3.3,0,6-2.7,6-6
		c0-0.5-0.1-1.1-0.2-1.6h1.8V17z"/>
</g>
</svg>
