<?xml version="1.0" encoding="utf-8"?>
<!-- Generator: Adobe Illustrator 19.1.0, SVG Export Plug-In . SVG Version: 6.00 Build 0)  -->
<!DOCTYPE svg PUBLIC "-//W3C//DTD SVG 1.1//EN" "http://www.w3.org/Graphics/SVG/1.1/DTD/svg11.dtd">
<svg version="1.1" id="Layer_1" xmlns="http://www.w3.org/2000/svg" xmlns:xlink="http://www.w3.org/1999/xlink" x="0px" y="0px"
	 width="20px" height="20px" viewBox="0 0 20 20" enable-background="new 0 0 20 20" xml:space="preserve">
<path fill="#FFFFFF" d="M7.8,7C7.5,7,7.3,7.4,7.3,7.6c0,0-0.2,3.2-0.2,4.1c0,1.4,0.1,2.3,0.1,2.3c0,0.2,0.2,0.4,0.5,0.4
	c0.3,0,0.5-0.2,0.5-0.4c0,0,0.4-0.9,0.4-2.4C8.6,10,8.5,8,8.3,7.6C8.2,7.2,8.1,7,7.8,7z M6,7.3c-0.3,0-0.4,0.3-0.4,0.5
	c0,0-0.2,3-0.2,3.9c0,1.4,0.1,2.3,0.1,2.3c0,0.2,0.2,0.4,0.5,0.4c0.3,0,0.5-0.2,0.5-0.4c0,0,0.1-0.9,0.1-2.3c0-1.6-0.2-3.9-0.2-3.9
	C6.4,7.6,6.3,7.3,6,7.3z M4.2,8.8c-0.3,0-0.4,0.3-0.4,0.5c0,0-0.2,1.4-0.2,2.4c0,1.4,0.2,2.3,0.2,2.3c0,0.2,0.2,0.4,0.5,0.4
	c0.3,0,0.5-0.2,0.5-0.4c0,0,0.2-0.8,0.2-2.3c0-1.6-0.2-2.4-0.2-2.4C4.6,9.1,4.5,8.8,4.2,8.8z M2.4,8.5C2.1,8.5,1.9,8.8,1.9,9
	c0,0-0.1,1.7-0.1,2.7c0,1.4,0.1,2.2,0.1,2.2c0,0.2,0.2,0.5,0.5,0.5c0.3,0,0.5-0.3,0.5-0.5c0,0,0.1-0.8,0.1-2.3C3,10,2.8,9,2.8,9
	C2.8,8.8,2.6,8.5,2.4,8.5z M0.4,9.8C0.2,9.8,0.2,10,0.2,10v3.6c0,0,0,0.3,0.2,0.3c0.3,0,0.6-0.7,0.6-2.1C1.1,10.7,0.7,9.8,0.4,9.8z
	 M17.1,8.9c-0.3,0-0.5,0-0.7,0.1c-0.4-2-2.5-3.6-4.7-3.6c-1,0-1.9,0.6-2.6,1.2V14c0,0,0,0.4,0.4,0.4h7.6c1.5,0,2.7-1.4,2.7-2.8
	C19.8,10.1,18.6,8.9,17.1,8.9z"/>
</svg>
