<svg id="Layer_1" data-name="Layer 1" xmlns="http://www.w3.org/2000/svg" width="20" height="20" viewBox="0 0 20 20">
  <defs>
    <style>
      .cls-1 {
        fill-rule: evenodd;
        opacity: 0.12;
      }

      .cls-2 {
        fill: #fff;
      }
    </style>
  </defs>
  <title>icon</title>
  <g>
    <path id="The_Sharpness" data-name="The Sharpness" class="cls-1" d="M7.94,7l4.64,3.1,0.65-.34Z"/>
    <g id="Lozenge">
      <path class="cls-2" d="M19.55,6a4.23,4.23,0,0,0-.78-1.94,2.8,2.8,0,0,0-2-.83C14.07,3.06,10,3.06,10,3.06h0s-4.11,0-6.85.2a2.8,2.8,0,0,0-2,.83A4.23,4.23,0,0,0,.37,6,29.59,29.59,0,0,0,.18,9.2v1.48a29.59,29.59,0,0,0,.2,3.17,4.23,4.23,0,0,0,.78,1.94,3.32,3.32,0,0,0,2.16.84c1.57,0.15,6.65.2,6.65,0.2s4.11,0,6.85-.2a2.8,2.8,0,0,0,2-.83,4.23,4.23,0,0,0,.78-1.94,29.64,29.64,0,0,0,.2-3.17V9.2A29.64,29.64,0,0,0,19.55,6ZM7.94,12.48V7l5.29,2.76Z"/>
    </g>
  </g>
</svg>
