<?xml version="1.0" encoding="utf-8"?>
<!-- Generator: Adobe Illustrator 19.1.0, SVG Export Plug-In . SVG Version: 6.00 Build 0)  -->
<!DOCTYPE svg PUBLIC "-//W3C//DTD SVG 1.1//EN" "http://www.w3.org/Graphics/SVG/1.1/DTD/svg11.dtd">
<svg version="1.1" id="Layer_1" xmlns="http://www.w3.org/2000/svg" xmlns:xlink="http://www.w3.org/1999/xlink" x="0px" y="0px"
	 width="20px" height="20px" viewBox="0 0 20 20" enable-background="new 0 0 20 20" xml:space="preserve">
<g>
	<path id="The_Sharpness" opacity="0.12" fill-rule="evenodd" clip-rule="evenodd" d="M7.9,7l4.6,3.1l0.7-0.3L7.9,7z"/>
	<g id="Lozenge">
		<g>
			<path fill="#FFFFFF" d="M19.6,6c0,0-0.2-1.3-0.8-1.9c-0.7-0.8-1.6-0.8-2-0.8C14.1,3.1,10,3.1,10,3.1h0c0,0-4.1,0-6.8,0.2
				c-0.4,0-1.2,0-2,0.8C0.6,4.7,0.4,6,0.4,6S0.2,7.6,0.2,9.2v1.5c0,1.6,0.2,3.2,0.2,3.2s0.2,1.3,0.8,1.9c0.7,0.8,1.7,0.8,2.2,0.8
				c1.6,0.2,6.7,0.2,6.7,0.2s4.1,0,6.9-0.2c0.4,0,1.2,0,2-0.8c0.6-0.6,0.8-1.9,0.8-1.9s0.2-1.6,0.2-3.2V9.2C19.7,7.6,19.6,6,19.6,6z
				 M7.9,12.5l0-5.5l5.3,2.8L7.9,12.5z"/>
		</g>
	</g>
</g>
</svg>
