<svg id="Layer_1" data-name="Layer 1" xmlns="http://www.w3.org/2000/svg" width="20" height="20" viewBox="0 0 20 20">
  <defs>
    <style>
      .cls-1 {
        fill: #fff;
      }
    </style>
  </defs>
  <title>icon</title>
  <path class="cls-1" d="M19.53,9.21h-2v-2H16v2H14v1.59h2v2h1.59v-2h2m-12.71-2v2.48h3.46a3.26,3.26,0,0,1-3.46,2.58,3.87,3.87,0,0,1,0-7.74,3.48,3.48,0,0,1,2.46,1h0L11.07,5.3A6.1,6.1,0,0,0,6.82,3.65a6.35,6.35,0,0,0,0,12.71,5.86,5.86,0,0,0,6.1-6.21,7.25,7.25,0,0,0-.12-1.33h-6Z"/>
</svg>
