<svg id="Layer_1" data-name="Layer 1" xmlns="http://www.w3.org/2000/svg" width="20" height="20" viewBox="0 0 20 20">
  <defs>
    <style>
      .cls-1 {
        fill: #fff;
      }
    </style>
  </defs>
  <title>icon</title>
  <g>
    <path class="cls-1" d="M10,2.21c2.54,0,2.84,0,3.84.06a5.26,5.26,0,0,1,1.77.33,3,3,0,0,1,1.09.71,3,3,0,0,1,.71,1.09,5.26,5.26,0,0,1,.33,1.77c0,1,.06,1.3.06,3.84s0,2.84-.06,3.84a5.26,5.26,0,0,1-.33,1.77,3.15,3.15,0,0,1-1.8,1.8,5.26,5.26,0,0,1-1.77.33c-1,0-1.3.06-3.84,0.06s-2.84,0-3.84-.06a5.26,5.26,0,0,1-1.77-.33A3,3,0,0,1,3.3,16.7a3,3,0,0,1-.71-1.09,5.26,5.26,0,0,1-.33-1.77c0-1-.06-1.3-0.06-3.84s0-2.84.06-3.84a5.26,5.26,0,0,1,.33-1.77A3,3,0,0,1,3.3,3.3a3,3,0,0,1,1.09-.71,5.26,5.26,0,0,1,1.77-.33c1,0,1.3-.06,3.84-0.06m0-1.71c-2.58,0-2.91,0-3.92.06A7,7,0,0,0,3.77,1a4.66,4.66,0,0,0-1.68,1.1A4.66,4.66,0,0,0,1,3.77,7,7,0,0,0,.55,6.08c0,1-.06,1.34-0.06,3.92s0,2.91.06,3.92A7,7,0,0,0,1,16.23a4.66,4.66,0,0,0,1.1,1.68A4.66,4.66,0,0,0,3.77,19a7,7,0,0,0,2.31.44c1,0,1.34.06,3.92,0.06s2.91,0,3.92-.06A7,7,0,0,0,16.23,19,4.86,4.86,0,0,0,19,16.23a7,7,0,0,0,.44-2.31c0-1,.06-1.34.06-3.92s0-2.91-.06-3.92A7,7,0,0,0,19,3.77a4.66,4.66,0,0,0-1.1-1.68A4.66,4.66,0,0,0,16.23,1,7,7,0,0,0,13.92.55c-1,0-1.34-.06-3.92-0.06h0Z"/>
    <path class="cls-1" d="M10,5.12A4.88,4.88,0,1,0,14.88,10,4.88,4.88,0,0,0,10,5.12Zm0,8.05A3.17,3.17,0,1,1,13.17,10,3.17,3.17,0,0,1,10,13.17Z"/>
    <circle class="cls-1" cx="15.07" cy="4.93" r="1.14"/>
  </g>
</svg>
