<svg id="Layer_1" data-name="Layer 1" xmlns="http://www.w3.org/2000/svg" width="20" height="20" viewBox="0 0 20 20">
  <defs>
    <style>
      .cls-1 {
        fill: #fff;
      }
    </style>
  </defs>
  <title>icon</title>
  <path class="cls-1" d="M18.41,0.13H1.59A1.44,1.44,0,0,0,.13,1.55V18.45a1.44,1.44,0,0,0,1.46,1.42H18.41a1.44,1.44,0,0,0,1.46-1.42V1.55A1.44,1.44,0,0,0,18.41.13ZM6,17H3.06V7.53H6V17ZM4.52,6.24a1.7,1.7,0,1,1,1.7-1.7A1.7,1.7,0,0,1,4.52,6.24ZM16.95,17H14V12.37c0-1.09,0-2.5-1.52-2.5s-1.76,1.19-1.76,2.42V17H7.82V7.53h2.81V8.82h0A3.08,3.08,0,0,1,13.44,7.3c3,0,3.51,2,3.51,4.49V17Z"/>
</svg>
