<svg id="Layer_1" data-name="Layer 1" xmlns="http://www.w3.org/2000/svg" width="20" height="20" viewBox="0 0 20 20">
  <defs>
    <style>
      .cls-1 {
        fill: #fff;
      }
    </style>
  </defs>
  <title>icon</title>
  <path class="cls-1" d="M17.53,0.08h-15A2.34,2.34,0,0,0,.14,2.42V17.47a2.34,2.34,0,0,0,2.35,2.34h15a2.34,2.34,0,0,0,2.35-2.34V2.42A2.34,2.34,0,0,0,17.53.08Zm-3.68,2.8a0.55,0.55,0,0,1,.55-0.55h2.67a0.55,0.55,0,0,1,.55.55V5.54a0.55,0.55,0,0,1-.55.55H14.4a0.55,0.55,0,0,1-.55-0.55V2.88ZM10,6.18A3.79,3.79,0,1,1,6.23,10,3.79,3.79,0,0,1,10,6.18ZM17.67,17a0.55,0.55,0,0,1-.55.55H2.94A0.55,0.55,0,0,1,2.39,17V8.38H4.24a6,6,0,1,0,11.58,0h1.85V17Z"/>
</svg>
