<svg id="Layer_1" data-name="Layer 1" xmlns="http://www.w3.org/2000/svg" width="20" height="20" viewBox="0 0 20 20">
  <defs>
    <style>
      .cls-1 {
        fill: #fff;
        fill-rule: evenodd;
      }
    </style>
  </defs>
  <title>icon</title>
  <g id="WA_Logo" data-name="WA Logo">
    <path class="cls-1" d="M15.69,4.27A8,8,0,0,0,3.1,13.93L2,18.07,6.21,17a8,8,0,0,0,3.82,1h0A8,8,0,0,0,15.69,4.27ZM10,16.58h0a6.64,6.64,0,0,1-3.39-.93L6.4,15.51l-2.52.66,0.67-2.45L4.4,13.47A6.65,6.65,0,1,1,10,16.58Zm3.65-5C13.48,11.5,12.5,11,12.32,11a0.31,0.31,0,0,0-.45.1c-0.13.2-.52,0.65-0.63,0.78a0.31,0.31,0,0,1-.43,0,5.46,5.46,0,0,1-1.61-1A6,6,0,0,1,8.08,9.51,0.29,0.29,0,0,1,8.17,9.1c0.09-.09.2-0.23,0.3-0.35a1.37,1.37,0,0,0,.2-0.33,0.37,0.37,0,0,0,0-.35C8.6,8,8.2,7,8,6.58a0.4,0.4,0,0,0-.45-0.34H7.2a0.73,0.73,0,0,0-.53.25A2.24,2.24,0,0,0,6,8.15a3.89,3.89,0,0,0,.82,2.07,8.91,8.91,0,0,0,3.42,3,11.48,11.48,0,0,0,1.14.42,2.74,2.74,0,0,0,1.26.08,2.06,2.06,0,0,0,1.35-1,1.67,1.67,0,0,0,.12-1A1,1,0,0,0,13.68,11.6Z"/>
  </g>
</svg>
