<?xml version="1.0" encoding="utf-8"?>
<!-- Generator: Adobe Illustrator 19.1.0, SVG Export Plug-In . SVG Version: 6.00 Build 0)  -->
<!DOCTYPE svg PUBLIC "-//W3C//DTD SVG 1.1//EN" "http://www.w3.org/Graphics/SVG/1.1/DTD/svg11.dtd">
<svg version="1.1" id="Layer_1" xmlns="http://www.w3.org/2000/svg" xmlns:xlink="http://www.w3.org/1999/xlink" x="0px" y="0px"
	 width="20px" height="20px" viewBox="0 0 20 20" enable-background="new 0 0 20 20" xml:space="preserve">
<path id="White_2_" fill="#FFFFFF" d="M18.8,0.1H1.3c-0.6,0-1.1,0.5-1.1,1.1v17.5c0,0.6,0.5,1.1,1.1,1.1h9.4v-7.6H8.1v-3h2.6V7
	c0-2.5,1.6-3.9,3.8-3.9c1.1,0,2,0.1,2.3,0.1v2.7l-1.6,0c-1.2,0-1.5,0.6-1.5,1.4v1.9h2.9l-0.4,3h-2.6v7.6h5c0.6,0,1.1-0.5,1.1-1.1
	V1.2C19.8,0.6,19.4,0.1,18.8,0.1z"/>
</svg>
