<svg id="Layer_1" data-name="Layer 1" xmlns="http://www.w3.org/2000/svg" width="20" height="20" viewBox="0 0 20 20">
  <defs>
    <style>
      .cls-1 {
        fill: #fff;
      }
    </style>
  </defs>
  <title>icon</title>
  <path id="White" class="cls-1" d="M18.75,0.11H1.25A1.09,1.09,0,0,0,.16,1.19v17.5a1.09,1.09,0,0,0,1.09,1.09h9.42V12.16H8.11v-3h2.56V7a3.58,3.58,0,0,1,3.82-3.92,21,21,0,0,1,2.29.12V5.85H15.21A1.23,1.23,0,0,0,13.74,7.3v1.9h2.94l-0.38,3H13.74v7.62h5a1.09,1.09,0,0,0,1.09-1.09V1.19A1.09,1.09,0,0,0,18.75.11Z"/>
</svg>
