<svg id="Layer_1" data-name="Layer 1" xmlns="http://www.w3.org/2000/svg" width="20" height="20" viewBox="0 0 20 20">
  <defs>
    <style>
      .cls-1 {
        fill: #fff;
      }
    </style>
  </defs>
  <title>icon</title>
  <path class="cls-1" d="M10,2a8,8,0,1,0,8,8A8,8,0,0,0,10,2Zm0,14.93a6.93,6.93,0,0,1-2.05-.31,7.75,7.75,0,0,0,.86-1.82l0.43-1.65a1.86,1.86,0,0,0,1.59.8c2.09,0,3.6-1.92,3.6-4.31a4.07,4.07,0,0,0-4.27-4c-3,0-4.58,2-4.58,4.19A3.11,3.11,0,0,0,7,12.52c0.13,0.06.2,0,.23-0.09l0.19-.79a0.21,0.21,0,0,0,0-.2,2.7,2.7,0,0,1-.52-1.58,3,3,0,0,1,3.13-3,2.74,2.74,0,0,1,2.9,2.82c0,1.87-.95,3.17-2.18,3.17a1,1,0,0,1-1-1.25,14,14,0,0,0,.57-2.31,0.87,0.87,0,0,0-.88-1A1.49,1.49,0,0,0,8.1,10a2.5,2.5,0,0,0,.21,1L7.5,14.47a6.65,6.65,0,0,0,0,2A6.93,6.93,0,1,1,10,16.93Z"/>
</svg>
