<svg id="Layer_1" data-name="Layer 1" xmlns="http://www.w3.org/2000/svg" width="20" height="20" viewBox="0 0 20 20">
  <defs>
    <style>
      .cls-1 {
        fill: #fff;
      }
    </style>
  </defs>
  <title>icon</title>
  <path class="cls-1" d="M19.73,3.9a8,8,0,0,1-2.3.63A4,4,0,0,0,19.2,2.31a8,8,0,0,1-2.54,1A4,4,0,0,0,9.84,6.93,11.36,11.36,0,0,1,1.59,2.75,4,4,0,0,0,2.83,8.09,4,4,0,0,1,1,7.59V7.64a4,4,0,0,0,3.21,3.92,4,4,0,0,1-1.81.07,4,4,0,0,0,3.74,2.78,8,8,0,0,1-5,1.71,8.14,8.14,0,0,1-1-.06,11.33,11.33,0,0,0,6.13,1.8A11.31,11.31,0,0,0,17.75,6.48q0-.26,0-0.52A8.13,8.13,0,0,0,19.73,3.9Z"/>
</svg>
