<?xml version="1.0" encoding="utf-8"?>
<!-- Generator: Adobe Illustrator 19.1.0, SVG Export Plug-In . SVG Version: 6.00 Build 0)  -->
<!DOCTYPE svg PUBLIC "-//W3C//DTD SVG 1.1//EN" "http://www.w3.org/Graphics/SVG/1.1/DTD/svg11.dtd">
<svg version="1.1" id="Layer_1" xmlns="http://www.w3.org/2000/svg" xmlns:xlink="http://www.w3.org/1999/xlink" x="0px" y="0px"
	 width="20px" height="20px" viewBox="0 0 20 20" enable-background="new 0 0 20 20" xml:space="preserve">
<path fill="#FFFFFF" d="M19.7,3.9c-0.7,0.3-1.5,0.5-2.3,0.6c0.8-0.5,1.5-1.3,1.8-2.2c-0.8,0.5-1.6,0.8-2.5,1C15.9,2.5,14.9,2,13.7,2
	c-2.2,0-4,1.8-4,4c0,0.3,0,0.6,0.1,0.9C6.5,6.8,3.6,5.2,1.6,2.8C1.2,3.3,1,4,1,4.8c0,1.4,0.7,2.6,1.8,3.3C2.2,8.1,1.6,7.9,1,7.6
	c0,0,0,0,0,0.1c0,1.9,1.4,3.6,3.2,3.9c-0.3,0.1-0.7,0.1-1.1,0.1c-0.3,0-0.5,0-0.8-0.1c0.5,1.6,2,2.7,3.7,2.8c-1.4,1.1-3.1,1.7-5,1.7
	c-0.3,0-0.6,0-1-0.1c1.8,1.1,3.9,1.8,6.1,1.8c7.4,0,11.4-6.1,11.4-11.4c0-0.2,0-0.3,0-0.5C18.5,5.4,19.2,4.7,19.7,3.9z"/>
</svg>
