<svg id="Layer_1" data-name="Layer 1" xmlns="http://www.w3.org/2000/svg" width="20" height="20" viewBox="0 0 20 20">
  <defs>
    <style>
      .cls-1 {
        fill: #fff;
      }
    </style>
  </defs>
  <title>icon</title>
  <path class="cls-1" d="M7.77,7a0.51,0.51,0,0,0-.44.52s-0.22,3.21-.22,4.14A17.76,17.76,0,0,0,7.25,14a0.46,0.46,0,0,0,.52.36A0.4,0.4,0,0,0,8.23,14a7.18,7.18,0,0,0,.36-2.36,27.84,27.84,0,0,0-.25-4.1A0.61,0.61,0,0,0,7.77,7ZM6,7.27a0.51,0.51,0,0,0-.44.52s-0.22,3-.22,3.9A22.32,22.32,0,0,0,5.44,14,0.46,0.46,0,0,0,6,14.4,0.46,0.46,0,0,0,6.48,14s0.07-.9.07-2.33c0-1.64-.18-3.92-0.18-3.92A0.46,0.46,0,0,0,6,7.27ZM4.18,8.82a0.51,0.51,0,0,0-.44.52A17.89,17.89,0,0,0,3.5,11.7,13.73,13.73,0,0,0,3.66,14a0.47,0.47,0,0,0,.49.41A0.44,0.44,0,0,0,4.62,14a12.72,12.72,0,0,0,.17-2.27,9,9,0,0,0-.23-2.37A0.46,0.46,0,0,0,4.18,8.82ZM2.35,8.5A0.51,0.51,0,0,0,1.92,9s-0.14,1.71-.14,2.65c0,1.43.06,2.23,0.06,2.23a0.57,0.57,0,0,0,.52.5,0.54,0.54,0,0,0,.52-0.47A16.61,16.61,0,0,0,3,11.66,16.17,16.17,0,0,0,2.82,9,0.53,0.53,0,0,0,2.35,8.5ZM0.42,9.82A0.17,0.17,0,0,0,.21,10v3.56s0,0.3.21,0.3,0.64-.74.64-2.1C1.06,10.66.67,9.82,0.42,9.82Zm16.71-.87a2.75,2.75,0,0,0-.74.1,4.78,4.78,0,0,0-4.7-3.56A4.65,4.65,0,0,0,9.07,6.67V14a0.43,0.43,0,0,0,.45.43h7.61a2.83,2.83,0,0,0,2.68-2.82A2.66,2.66,0,0,0,17.13,8.95Z"/>
</svg>
