<?xml version="1.0" encoding="utf-8"?><!DOCTYPE svg PUBLIC "-//W3C//DTD SVG 1.1//EN" "http://www.w3.org/Graphics/SVG/1.1/DTD/svg11.dtd"><svg width="60" height="40" viewBox="0 0 60 40" xmlns="http://www.w3.org/2000/svg" xmlns:xlink="http://www.w3.org/1999/xlink"><svg width="20" height="20" viewBox="0 0 20 20" id="icons-facebook"><path fill="#FFF" d="M18.8.1H1.3C.7.1.2.6.2 1.2v17.5c0 .6.5 1.1 1.1 1.1h9.4v-7.6H8.1v-3h2.6V7c0-2.5 1.6-3.9 3.8-3.9 1.1 0 2 .1 2.3.1v2.7h-1.6c-1.2 0-1.5.6-1.5 1.4v1.9h2.9l-.4 3h-2.6v7.6h5c.6 0 1.1-.5 1.1-1.1V1.2c.1-.6-.3-1.1-.9-1.1z"/></svg><svg width="20" height="20" viewBox="0 0 20 20" id="icons-instagram" x="20"><path fill="#FFF" d="M17.5.1h-15C1.2.1.2 1.1.2 2.4v15.1c0 1.3 1.1 2.3 2.3 2.3h15c1.3 0 2.3-1 2.3-2.3V2.4c.1-1.3-1-2.3-2.3-2.3zm-3.7 2.8c0-.3.2-.6.6-.6h2.7c.3 0 .6.2.6.6v2.7c0 .3-.2.6-.6.6h-2.7c-.3 0-.6-.2-.6-.6V2.9zM10 6.2c2.1 0 3.8 1.7 3.8 3.8 0 2.1-1.7 3.8-3.8 3.8-2.1 0-3.8-1.7-3.8-3.8 0-2.1 1.7-3.8 3.8-3.8zM17.7 17c0 .3-.2.6-.6.6H2.9c-.3 0-.6-.2-.6-.6V8.4h1.8c0 .5-.1 1-.1 1.6 0 3.3 2.7 6 6 6s6-2.7 6-6c0-.5-.1-1.1-.2-1.6h1.8V17z"/></svg><svg width="20" height="20" viewBox="0 0 20 20" id="icons-soundcloud" y="20"><path fill="#FFF" d="M7.8 7c-.3 0-.5.4-.5.6 0 0-.2 3.2-.2 4.1 0 1.4.1 2.3.1 2.3 0 .2.2.4.5.4s.5-.2.5-.4c0 0 .4-.9.4-2.4 0-1.6-.1-3.6-.3-4-.1-.4-.2-.6-.5-.6zM6 7.3c-.3 0-.4.3-.4.5 0 0-.2 3-.2 3.9 0 1.4.1 2.3.1 2.3 0 .2.2.4.5.4s.5-.2.5-.4c0 0 .1-.9.1-2.3 0-1.6-.2-3.9-.2-3.9 0-.2-.1-.5-.4-.5zM4.2 8.8c-.3 0-.4.3-.4.5 0 0-.2 1.4-.2 2.4 0 1.4.2 2.3.2 2.3 0 .2.2.4.5.4s.5-.2.5-.4c0 0 .2-.8.2-2.3 0-1.6-.2-2.4-.2-2.4-.2-.2-.3-.5-.6-.5zm-1.8-.3c-.3 0-.5.3-.5.5 0 0-.1 1.7-.1 2.7 0 1.4.1 2.2.1 2.2 0 .2.2.5.5.5s.5-.3.5-.5c0 0 .1-.8.1-2.3C3 10 2.8 9 2.8 9c0-.2-.2-.5-.4-.5zm-2 1.3c-.2 0-.2.2-.2.2v3.6s0 .3.2.3c.3 0 .6-.7.6-2.1.1-1.1-.3-2-.6-2zm16.7-.9c-.3 0-.5 0-.7.1-.4-2-2.5-3.6-4.7-3.6-1 0-1.9.6-2.6 1.2V14s0 .4.4.4h7.6c1.5 0 2.7-1.4 2.7-2.8 0-1.5-1.2-2.7-2.7-2.7z"/></svg><svg width="20" height="20" viewBox="0 0 20 20" id="icons-twitter" x="20" y="20"><path fill="#FFF" d="M19.7 3.9c-.7.3-1.5.5-2.3.6.8-.5 1.5-1.3 1.8-2.2-.8.5-1.6.8-2.5 1-.8-.8-1.8-1.3-3-1.3-2.2 0-4 1.8-4 4 0 .3 0 .6.1.9-3.3-.1-6.2-1.7-8.2-4.1-.4.5-.6 1.2-.6 2 0 1.4.7 2.6 1.8 3.3-.6 0-1.2-.2-1.8-.5v.1c0 1.9 1.4 3.6 3.2 3.9-.3.1-.7.1-1.1.1-.3 0-.5 0-.8-.1.5 1.6 2 2.7 3.7 2.8-1.4 1.1-3.1 1.7-5 1.7-.3 0-.6 0-1-.1 1.8 1.1 3.9 1.8 6.1 1.8 7.4 0 11.4-6.1 11.4-11.4v-.5c1-.5 1.7-1.2 2.2-2z"/></svg><svg width="20" height="20" viewBox="0 0 20 20" id="icons-youtube" x="40"><path opacity=".12" fill-rule="evenodd" clip-rule="evenodd" d="M7.9 7l4.6 3.1.7-.3L7.9 7z"/><path fill="#FFF" d="M19.6 6s-.2-1.3-.8-1.9c-.7-.8-1.6-.8-2-.8-2.7-.2-6.8-.2-6.8-.2s-4.1 0-6.8.2c-.4 0-1.2 0-2 .8C.6 4.7.4 6 .4 6S.2 7.6.2 9.2v1.5c0 1.6.2 3.2.2 3.2s.2 1.3.8 1.9c.7.8 1.7.8 2.2.8 1.6.2 6.7.2 6.7.2s4.1 0 6.9-.2c.4 0 1.2 0 2-.8.6-.6.8-1.9.8-1.9s.2-1.6.2-3.2V9.2c-.3-1.6-.4-3.2-.4-3.2zM7.9 12.5V7l5.3 2.8-5.3 2.7z"/></svg></svg>