<?xml version="1.0" encoding="utf-8"?><svg width="80" height="60" viewBox="0 0 80 60" xmlns="http://www.w3.org/2000/svg" xmlns:xlink="http://www.w3.org/1999/xlink"><svg id="icon_Facebook" data-name="Layer 1" width="20" height="20" viewBox="0 0 20 20"><defs><style>.acls-1{fill:#fff}</style></defs><title>icon</title><path id="aWhite" class="acls-1" d="M18.75.11H1.25A1.09 1.09 0 0 0 .16 1.19v17.5a1.09 1.09 0 0 0 1.09 1.09h9.42v-7.62H8.11v-3h2.56V7a3.58 3.58 0 0 1 3.82-3.92 21 21 0 0 1 2.29.12v2.65h-1.57a1.23 1.23 0 0 0-1.47 1.45v1.9h2.94l-.38 3h-2.56v7.62h5a1.09 1.09 0 0 0 1.09-1.09V1.19A1.09 1.09 0 0 0 18.75.11z"/></svg><svg id="icon_Google+" data-name="Layer 1" width="20" height="20" viewBox="0 0 20 20" x="20"><defs><style>.bcls-1{fill:#fff}</style></defs><title>icon</title><path class="bcls-1" d="M19.53 9.21h-2v-2H16v2h-2v1.59h2v2h1.59v-2h2m-12.71-2v2.48h3.46a3.26 3.26 0 0 1-3.46 2.58 3.87 3.87 0 0 1 0-7.74 3.48 3.48 0 0 1 2.46 1l1.73-1.82a6.1 6.1 0 0 0-4.25-1.65 6.35 6.35 0 0 0 0 12.71 5.86 5.86 0 0 0 6.1-6.21 7.25 7.25 0 0 0-.12-1.33h-6z"/></svg><svg id="icon_GooglePlus" data-name="Layer 1" width="20" height="20" viewBox="0 0 20 20" y="20"><defs><style>.ccls-1{fill:#fff}</style></defs><title>icon</title><path class="ccls-1" d="M19.53 9.21h-2v-2H16v2h-2v1.59h2v2h1.59v-2h2m-12.71-2v2.48h3.46a3.26 3.26 0 0 1-3.46 2.58 3.87 3.87 0 0 1 0-7.74 3.48 3.48 0 0 1 2.46 1l1.73-1.82a6.1 6.1 0 0 0-4.25-1.65 6.35 6.35 0 0 0 0 12.71 5.86 5.86 0 0 0 6.1-6.21 7.25 7.25 0 0 0-.12-1.33h-6z"/></svg><svg id="icon_Instagram" data-name="Layer 1" width="20" height="20" viewBox="0 0 20 20" x="20" y="20"><defs><style>.dcls-1{fill:#fff}</style></defs><title>icon</title><path class="dcls-1" d="M17.53.08h-15A2.34 2.34 0 0 0 .14 2.42v15.05a2.34 2.34 0 0 0 2.35 2.34h15a2.34 2.34 0 0 0 2.35-2.34V2.42A2.34 2.34 0 0 0 17.53.08zm-3.68 2.8a.55.55 0 0 1 .55-.55h2.67a.55.55 0 0 1 .55.55v2.66a.55.55 0 0 1-.55.55H14.4a.55.55 0 0 1-.55-.55V2.88zM10 6.18A3.79 3.79 0 1 1 6.23 10 3.79 3.79 0 0 1 10 6.18zM17.67 17a.55.55 0 0 1-.55.55H2.94a.55.55 0 0 1-.55-.55V8.38h1.85a6 6 0 1 0 11.58 0h1.85V17z"/></svg><svg id="icon_LinkedIn" data-name="Layer 1" width="20" height="20" viewBox="0 0 20 20" x="40"><defs><style>.ecls-1{fill:#fff}</style></defs><title>icon</title><path class="ecls-1" d="M18.41.13H1.59A1.44 1.44 0 0 0 .13 1.55v16.9a1.44 1.44 0 0 0 1.46 1.42h16.82a1.44 1.44 0 0 0 1.46-1.42V1.55A1.44 1.44 0 0 0 18.41.13zM6 17H3.06V7.53H6V17zM4.52 6.24a1.7 1.7 0 1 1 1.7-1.7 1.7 1.7 0 0 1-1.7 1.7zM16.95 17H14v-4.63c0-1.09 0-2.5-1.52-2.5s-1.76 1.19-1.76 2.42V17h-2.9V7.53h2.81v1.29a3.08 3.08 0 0 1 2.81-1.52c3 0 3.51 2 3.51 4.49V17z"/></svg><svg id="icon_Pinterest" data-name="Layer 1" width="20" height="20" viewBox="0 0 20 20" x="40" y="20"><defs><style>.fcls-1{fill:#fff}</style></defs><title>icon</title><path class="fcls-1" d="M10 2a8 8 0 1 0 8 8 8 8 0 0 0-8-8zm0 14.93a6.93 6.93 0 0 1-2.05-.31 7.75 7.75 0 0 0 .86-1.82l.43-1.65a1.86 1.86 0 0 0 1.59.8c2.09 0 3.6-1.92 3.6-4.31a4.07 4.07 0 0 0-4.27-4c-3 0-4.58 2-4.58 4.19A3.11 3.11 0 0 0 7 12.52c.13.06.2 0 .23-.09l.19-.79a.21.21 0 0 0 0-.2 2.7 2.7 0 0 1-.52-1.58 3 3 0 0 1 3.13-3 2.74 2.74 0 0 1 2.9 2.82c0 1.87-.95 3.17-2.18 3.17a1 1 0 0 1-1-1.25 14 14 0 0 0 .57-2.31.87.87 0 0 0-.88-1A1.49 1.49 0 0 0 8.1 10a2.5 2.5 0 0 0 .21 1l-.81 3.47a6.65 6.65 0 0 0 0 2 6.93 6.93 0 1 1 2.5.46z"/></svg><svg id="icon_SoundCloud" data-name="Layer 1" width="20" height="20" viewBox="0 0 20 20" y="40"><defs><style>.gcls-1{fill:#fff}</style></defs><title>icon</title><path class="gcls-1" d="M7.77 7a.51.51 0 0 0-.44.52s-.22 3.21-.22 4.14A17.76 17.76 0 0 0 7.25 14a.46.46 0 0 0 .52.36.4.4 0 0 0 .46-.36 7.18 7.18 0 0 0 .36-2.36 27.84 27.84 0 0 0-.25-4.1.61.61 0 0 0-.57-.54zM6 7.27a.51.51 0 0 0-.44.52s-.22 3-.22 3.9a22.32 22.32 0 0 0 .1 2.31.46.46 0 0 0 .56.4.46.46 0 0 0 .48-.4s.07-.9.07-2.33c0-1.64-.18-3.92-.18-3.92A.46.46 0 0 0 6 7.27zM4.18 8.82a.51.51 0 0 0-.44.52 17.89 17.89 0 0 0-.24 2.36 13.73 13.73 0 0 0 .16 2.3.47.47 0 0 0 .49.41.44.44 0 0 0 .47-.41 12.72 12.72 0 0 0 .17-2.27 9 9 0 0 0-.23-2.37.46.46 0 0 0-.38-.54zM2.35 8.5a.51.51 0 0 0-.43.5s-.14 1.71-.14 2.65c0 1.43.06 2.23.06 2.23a.57.57 0 0 0 .52.5.54.54 0 0 0 .52-.47A16.61 16.61 0 0 0 3 11.66 16.17 16.17 0 0 0 2.82 9a.53.53 0 0 0-.47-.5zM.42 9.82a.17.17 0 0 0-.21.18v3.56s0 .3.21.3.64-.74.64-2.1c0-1.1-.39-1.94-.64-1.94zm16.71-.87a2.75 2.75 0 0 0-.74.1 4.78 4.78 0 0 0-4.7-3.56 4.65 4.65 0 0 0-2.62 1.18V14a.43.43 0 0 0 .45.43h7.61a2.83 2.83 0 0 0 2.68-2.82 2.66 2.66 0 0 0-2.68-2.66z"/></svg><svg id="icon_Twitter" data-name="Layer 1" width="20" height="20" viewBox="0 0 20 20" x="20" y="40"><defs><style>.hcls-1{fill:#fff}</style></defs><title>icon</title><path class="hcls-1" d="M19.73 3.9a8 8 0 0 1-2.3.63 4 4 0 0 0 1.77-2.22 8 8 0 0 1-2.54 1 4 4 0 0 0-6.82 3.62 11.36 11.36 0 0 1-8.25-4.18 4 4 0 0 0 1.24 5.34A4 4 0 0 1 1 7.59v.05a4 4 0 0 0 3.21 3.92 4 4 0 0 1-1.81.07 4 4 0 0 0 3.74 2.78 8 8 0 0 1-5 1.71 8.14 8.14 0 0 1-1-.06 11.33 11.33 0 0 0 6.13 1.8A11.31 11.31 0 0 0 17.75 6.48v-.52a8.13 8.13 0 0 0 1.98-2.06z"/></svg><svg id="icon_WhatsApp" data-name="Layer 1" width="20" height="20" viewBox="0 0 20 20" x="40" y="40"><defs><style>.icls-1{fill:#fff;fill-rule:evenodd}</style></defs><title>icon</title><path class="icls-1" d="M15.69 4.27A8 8 0 0 0 3.1 13.93L2 18.07 6.21 17a8 8 0 0 0 3.82 1 8 8 0 0 0 5.66-13.73zM10 16.58a6.64 6.64 0 0 1-3.39-.93l-.21-.14-2.52.66.67-2.45-.15-.25a6.65 6.65 0 1 1 5.6 3.11zm3.65-5c-.17-.08-1.15-.58-1.33-.58a.31.31 0 0 0-.45.1c-.13.2-.52.65-.63.78a.31.31 0 0 1-.43 0 5.46 5.46 0 0 1-1.61-1 6 6 0 0 1-1.12-1.37.29.29 0 0 1 .09-.41c.09-.09.2-.23.3-.35a1.37 1.37 0 0 0 .2-.33.37.37 0 0 0 0-.35C8.6 8 8.2 7 8 6.58a.4.4 0 0 0-.45-.34H7.2a.73.73 0 0 0-.53.25A2.24 2.24 0 0 0 6 8.15a3.89 3.89 0 0 0 .82 2.07 8.91 8.91 0 0 0 3.42 3 11.48 11.48 0 0 0 1.14.42 2.74 2.74 0 0 0 1.26.08 2.06 2.06 0 0 0 1.35-1 1.67 1.67 0 0 0 .12-1 1 1 0 0 0-.43-.12z" id="iWA_Logo" data-name="WA Logo"/></svg><svg id="icon_YouTube" data-name="Layer 1" width="20" height="20" viewBox="0 0 20 20" x="60"><defs><style>.jcls-1{fill-rule:evenodd;opacity:.12}.jcls-2{fill:#fff}</style></defs><title>icon</title><path id="jThe_Sharpness" data-name="The Sharpness" class="jcls-1" d="M7.94 7l4.64 3.1.65-.34z"/><path class="jcls-2" d="M19.55 6a4.23 4.23 0 0 0-.78-1.94 2.8 2.8 0 0 0-2-.83c-2.7-.17-6.77-.17-6.77-.17s-4.11 0-6.85.2a2.8 2.8 0 0 0-2 .83A4.23 4.23 0 0 0 .37 6a29.59 29.59 0 0 0-.19 3.2v1.48a29.59 29.59 0 0 0 .2 3.17 4.23 4.23 0 0 0 .78 1.94 3.32 3.32 0 0 0 2.16.84c1.57.15 6.65.2 6.65.2s4.11 0 6.85-.2a2.8 2.8 0 0 0 2-.83 4.23 4.23 0 0 0 .78-1.94 29.64 29.64 0 0 0 .2-3.17V9.2a29.64 29.64 0 0 0-.25-3.2zM7.94 12.48V7l5.29 2.76z" id="jLozenge"/></svg></svg>